<?xml version="1.0" encoding="utf-8"?>
<!-- Generator: Adobe Illustrator 21.0.0, SVG Export Plug-In . SVG Version: 6.00 Build 0)  -->
<svg version="1.1" id="Capa_1" xmlns="http://www.w3.org/2000/svg" xmlns:xlink="http://www.w3.org/1999/xlink" x="0px" y="0px"
	 viewBox="0 0 274.3 84.8" style="enable-background:new 0 0 274.3 84.8;" xml:space="preserve">
<style type="text/css">
	.st0{fill:#62f468;}
	.st1{clip-path:url(#SVGID_2_);}
	.st2{clip-path:url(#SVGID_4_);}
	.st3{clip-path:url(#SVGID_6_);}
</style>
<title>LOGO XCOOP</title>
<path class="st0" d="M35.1,47.6l17,20.3c2.3,2.7,6.3,3,9,0.8s3-6.3,0.8-9l0,0l-18.4-22L35.1,47.6z"/>
<g>
	<defs>
		<path id="SVGID_1_" d="M35.1,47.6l17,20.3c2.3,2.7,6.3,3,9,0.8s3-6.3,0.8-9l0,0l-18.4-22L35.1,47.6z"/>
	</defs>
	<clipPath id="SVGID_2_">
		<use xlink:href="#SVGID_1_"  style="overflow:visible;"/>
	</clipPath>
	<g class="st1">
		<rect x="35.1" y="37.7" class="st0" width="29" height="32.4"/>
	</g>
</g>
<path class="st0" d="M43.4,37.7l0.5,0.4l-8,9.5l16.7,19.8c2.1,2.3,5.8,2.5,8.1,0.4c2.2-2,2.5-5.4,0.7-7.8l-18.4-22L43.4,37.7
	l0.5,0.4L43.4,37.7l0.5-0.4l18.4,22c2.6,2.8,2.5,7.3-0.3,9.9c-2.8,2.6-7.3,2.5-9.9-0.3c-0.2-0.2-0.3-0.4-0.5-0.5L34.3,47.6l9.1-10.9
	l0.5,0.6L43.4,37.7z"/>
<path class="st0" d="M52.1,3.2L35.2,23.4l8.3,9.9l18.3-21.9c2.3-2.7,1.9-6.7-0.8-9C58.3,0.2,54.3,0.5,52.1,3.2L52.1,3.2"/>
<g>
	<defs>
		<path id="SVGID_3_" d="M52.1,3.2L35.2,23.4l8.3,9.9l18.3-21.9c2.3-2.7,1.9-6.7-0.8-9C58.3,0.2,54.3,0.5,52.1,3.2L52.1,3.2"/>
	</defs>
	<clipPath id="SVGID_4_">
		<use xlink:href="#SVGID_3_"  style="overflow:visible;"/>
	</clipPath>
	<g class="st2">
		<rect x="35.2" y="0.9" class="st0" width="28.9" height="32.3"/>
	</g>
</g>
<path class="st0" d="M43.5,33.3L43,32.9L61.3,11c2.1-2.3,2-6-0.4-8.1c-2.3-2.1-6-2-8.1,0.4c-0.1,0.1-0.2,0.2-0.3,0.4L36,23.4l8,9.5
	L43.5,33.3L43,32.9L43.5,33.3L43,33.7l-8.7-10.3L51.6,2.8c2.3-3.1,6.7-3.7,9.8-1.4c3.1,2.3,3.7,6.7,1.4,9.8
	c-0.2,0.2-0.4,0.4-0.5,0.7L43.5,34.3L43,33.7L43.5,33.3z"/>
<path class="st0" d="M3.1,2.4c-2.7,2.2-3.1,6.3-0.8,9c0,0,0,0,0,0l20.2,24.1L2.3,59.7c-2.3,2.7-1.9,6.7,0.8,9s6.7,1.9,9-0.8l27-32.4
	l0,0l-27-32.3C9.8,0.5,5.8,0.2,3.1,2.4C3.1,2.4,3.1,2.4,3.1,2.4"/>
<g>
	<defs>
		<path id="SVGID_5_" d="M3.1,2.4c-2.7,2.2-3.1,6.3-0.8,9c0,0,0,0,0,0l20.2,24.1L2.3,59.7c-2.3,2.7-1.9,6.7,0.8,9s6.7,1.9,9-0.8
			l27-32.4l0,0l-27-32.3C9.8,0.5,5.8,0.2,3.1,2.4C3.1,2.4,3.1,2.4,3.1,2.4"/>
	</defs>
	<clipPath id="SVGID_6_">
		<use xlink:href="#SVGID_5_"  style="overflow:visible;"/>
	</clipPath>
	<g class="st3">
		<rect y="0.9" class="st0" width="39" height="69.2"/>
	</g>
</g>
<path class="st0" d="M39.1,35.5l-0.5,0.4l0,0l0,0l-27-32.3l0,0c-2-2.5-5.6-2.8-8-0.9c0,0-0.1,0.1-0.1,0.1l0,0l0,0
	C1,4.9,0.7,8.6,2.7,11l0,0l20.6,24.5L2.7,60.1l0,0c-2,2.4-1.7,6,0.7,8.1l0,0l0,0c2.4,2,6,1.7,8.1-0.7l27.1-32.4L39.1,35.5l-0.5,0.4
	L39.1,35.5l0.5,0.4L12.5,68.3c-2.5,2.9-6.9,3.3-9.8,0.9l0,0c-2.9-2.5-3.3-6.9-0.9-9.8l0,0l19.9-23.8L1.8,11.8l0,0
	c-2.5-3-2.1-7.4,0.9-9.8l0,0l0,0c3-2.5,7.3-2.1,9.8,0.9l0,0l27,32.3l0,0l0.3,0.4l-0.3,0.4L39.1,35.5z"/>
<path class="st0" d="M90.7,70.3c-17.1,0-30.9-13.8-30.9-30.9c0-17.1,13.8-30.9,30.9-30.9c7.5,0,14.8,2.8,20.5,7.7
	c2.4,2.1,2.6,5.7,0.5,8c-2.1,2.4-5.7,2.6-8,0.5l0,0c-8.1-7.1-20.5-6.3-27.6,1.8S69.7,46.9,77.8,54c7.3,6.4,18.2,6.5,25.6,0.2
	c2.5-1.8,6.1-1.3,7.9,1.3c1.6,2.3,1.4,5.4-0.6,7.4C105.2,67.6,98.1,70.2,90.7,70.3"/>
<path class="st0" d="M243.3,8.3c-9.6,0-18.7,4.5-24.5,12.1c2.9,4.2,4.8,9.1,5.5,14.2c2.6-10.5,13.1-16.9,23.6-14.3
	c10.5,2.6,16.9,13.1,14.3,23.6c-2.6,10.5-13.1,16.9-23.6,14.3c-7.1-1.7-12.6-7.3-14.3-14.3c-1.1,8.3-5.4,15.9-11.9,21.3l0,13.6
	c0,3.3,2.6,6,5.7,6c3.5,0,5.7-3.9,5.6-5.1c0-0.2,0-0.8,0-0.9l0-15.6C237,74,256.5,72,267.3,58.8c10.8-13.2,8.8-32.7-4.4-43.5
	C257.4,10.8,250.5,8.3,243.3,8.3"/>
<path class="st0" d="M191.2,8.4c-10.7,0-20.7,5.6-26.3,14.7l-0.1,0.2l-0.2,0.4l-0.1,0.3l-0.2,0.3l-0.2,0.3l-0.2,0.3
	c-0.1,0.1-0.1,0.2-0.2,0.3s-0.1,0.2-0.2,0.3s-0.1,0.2-0.2,0.3s-0.1,0.2-0.2,0.3s-0.1,0.1-0.1,0.2l-0.1,0.1c0,0.1-0.1,0.2-0.1,0.3
	s-0.1,0.2-0.2,0.4l-0.1,0.3l-0.2,0.4l-0.1,0.3l-0.2,0.5c0,0.1,0,0.1-0.1,0.2l-0.2,0.6v0.1c-0.2,0.7-0.4,1.4-0.6,2.2c0,0,0,0.1,0,0.1
	l-0.1,0.6c0,0.1,0,0.1,0,0.2L161,33c0,0,0,0.1,0,0.2s-0.1,0.4-0.1,0.5c0,0.2,0,0.1,0,0.2l-0.1,0.6v0.2c0,0.2-0.1,0.4-0.1,0.7
	c0,0,0,0,0,0.1l-0.1,0.7v0.2c0,0.1,0,0.3,0,0.4l0,0c-0.1,0.8-0.1,1.7-0.1,2.5c0,10.8-8.7,19.6-19.6,19.6s-19.6-8.7-19.6-19.6
	s8.7-19.6,19.6-19.6c7.8,0,14.9,4.6,18,11.8c0.5-2.1,1.2-4.2,2.2-6.2c1-2.1,2.2-4.1,3.5-5.9c-11-13-30.5-14.7-43.6-3.7
	s-14.7,30.5-3.7,43.6c11,13,30.5,14.7,43.6,3.7c7-5.9,11-14.5,11-23.6c0-10.8,8.7-19.6,19.6-19.6c10.8,0,19.6,8.7,19.6,19.6
	c0,10.8-8.7,19.6-19.6,19.6c-7.8,0-14.8-4.6-17.9-11.7c-0.5,2.1-1.2,4.1-2.1,6c-1,2.2-2.2,4.2-3.6,6.1c11,13,30.5,14.7,43.6,3.6
	s14.7-30.5,3.6-43.6c-5.9-6.9-14.5-11-23.6-10.9"/>
<path class="st0" d="M166,57.2c1.1-1.6,2.1-3.3,2.9-5.1c1.1-2.5,1.9-5.1,2.4-7.7"/>
</svg>
